<svg version="1.1" id="Layer_1" xmlns="http://www.w3.org/2000/svg" xmlns:xlink="http://www.w3.org/1999/xlink" x="0px" y="0px"
	 width="100%" margin="auto" viewBox="0 0 632 274" enable-background="new 0 0 632 274" xml:space="preserve">
<path fill="none" opacity="1.000000" stroke="#000000" stroke-linecap="round" stroke-linejoin="round" stroke-width="3.000000"
	d="
M455.500000,39.500000 
	C455.656677,41.048901 455.826447,42.301220 453.505768,42.553051 
	C437.671112,44.271351 432.020386,54.224510 429.646332,67.027138 
	C427.839417,76.771225 428.812927,86.591187 432.478027,96.008545 
	C435.485291,103.735413 443.879333,109.634758 451.492462,110.118576 
	C457.310577,110.488312 459.729523,106.779877 460.946320,102.484795 
	C461.968628,98.876251 462.522217,95.134926 463.214478,91.785454 
	C463.666626,91.333298 463.834564,91.019569 463.999786,91.020988 
	C473.645691,91.103973 473.112610,89.836136 473.004578,99.500053 
	C472.974762,102.166382 472.769104,104.858124 473.052124,107.494400 
	C473.518951,111.842720 471.761810,114.242332 467.501434,115.007935 
	C451.765320,117.835754 436.169983,119.565742 422.004547,109.493607 
	C421.136200,108.876175 420.321777,108.180573 419.501953,107.497665 
	C415.223022,103.933281 415.028046,102.994011 417.594147,97.809776 
	C414.729553,95.428734 409.798981,95.224854 409.019653,90.496758 
	C407.871490,83.530884 406.245056,76.557655 408.500000,69.500000 
"/>
<path fill="none" opacity="1.000000" stroke="#000000" stroke-linecap="round" stroke-linejoin="round" stroke-width="3.000000"
	d="
M196.000000,39.000000 
	C196.000000,46.166592 196.000000,53.333179 196.000000,60.405689 
	C187.852615,61.942467 187.446823,61.682522 184.973633,54.008499 
	C184.844955,53.609203 184.161865,53.391842 184.025208,52.991390 
	C181.018631,44.180908 180.423920,43.816746 171.500000,45.500000 
	C171.500000,64.666664 171.559937,83.833702 171.443954,102.999664 
	C171.423416,106.392380 171.882797,108.139153 175.999893,108.142067 
	C180.920090,108.145546 181.500000,109.291496 181.500000,114.750000 
	C167.833328,114.750000 154.166672,114.750000 140.587692,114.750000 
	C138.589706,110.337257 141.165298,108.478638 144.514755,108.150841 
	C147.286118,107.879616 149.279099,106.965820 151.000000,105.000000 
"/>
<path fill="none" opacity="1.000000" stroke="#000000" stroke-linecap="round" stroke-linejoin="round" stroke-width="2.000000"
	d="
M191.000000,138.250000 
	C193.234207,138.364929 194.348328,140.720001 196.530731,141.126602 
	C199.771820,139.966873 201.421921,138.060516 200.043839,134.201141 
	C193.005783,133.772552 186.096268,132.155899 178.750000,132.532440 
	C178.750000,139.658920 178.750000,146.829453 178.750000,154.408524 
	C169.227432,154.506454 159.824127,155.793320 151.513565,149.980606 
	C149.447128,148.535263 147.194443,149.152756 144.500000,148.957230 
	C144.500000,153.654968 144.500000,158.327484 144.500000,163.000000 
	C144.500000,173.833328 144.490646,184.666687 144.503906,195.500000 
	C144.510651,201.009857 144.902298,201.351974 150.500000,200.999985 
	C156.590103,200.617050 157.738571,199.660004 159.500000,193.500000 
"/>
<path fill="none" opacity="1.000000" stroke="#000000" stroke-linecap="round" stroke-linejoin="round" stroke-width="3.000000"
	d="
M518.500000,89.500000 
	C518.849854,88.879135 517.814697,87.920288 518.999451,87.498421 
	C524.184937,85.651962 525.657715,80.932457 527.368835,75.956757 
	C522.460510,70.054947 515.076172,67.279045 508.007629,63.983639 
	C504.176208,62.197407 500.803741,59.654858 499.570862,55.479084 
	C497.824768,49.565002 501.713257,43.875214 508.000000,42.500004 
	C513.065308,41.391979 517.409241,44.740791 518.984436,51.003914 
	C519.102722,51.474167 518.921814,52.014526 519.011597,52.497841 
	C520.531189,60.676437 521.268127,61.141567 530.500000,59.406002 
	C530.500000,53.843136 530.874329,48.139263 530.388489,42.509624 
	C529.954346,37.478924 524.860291,36.634506 521.472656,36.227882 
	C510.460602,34.906086 499.439453,34.506924 488.931702,39.866089 
	C483.977692,42.392723 481.597107,45.592091 482.000000,51.000000 
"/>
<path fill="none" opacity="1.000000" stroke="#000000" stroke-linecap="round" stroke-linejoin="round" stroke-width="3.000000"
	d="
M579.500000,89.500000 
	C579.849854,88.879135 578.814697,87.920288 579.999451,87.498421 
	C585.184937,85.651947 586.657715,80.932457 588.368835,75.956757 
	C583.460510,70.054947 576.076111,67.279068 569.007629,63.983643 
	C565.176208,62.197411 561.803650,59.654877 560.570801,55.479095 
	C558.824707,49.565018 562.713257,43.875217 569.000000,42.500015 
	C574.065308,41.392002 578.409241,44.740791 579.984436,51.003914 
	C580.102722,51.474167 579.921875,52.014519 580.011658,52.497837 
	C581.531189,60.676437 582.268127,61.141567 591.500000,59.406002 
	C591.500000,53.843136 591.874329,48.139263 591.388489,42.509624 
	C590.954346,37.478924 585.860291,36.634506 582.472656,36.227879 
	C571.460632,34.906086 560.439453,34.506920 549.931702,39.866085 
	C544.977722,42.392708 542.597107,45.592091 543.000000,51.000000 
"/>
<path fill="none" opacity="1.000000" stroke="#000000" stroke-linecap="round" stroke-linejoin="round" stroke-width="3.000000"
	d="
M329.499969,107.500000 
	C329.333313,105.833336 329.025299,104.166969 329.021820,102.499954 
	C328.986145,85.500031 328.991852,68.499992 329.004364,51.500004 
	C329.008789,45.482059 329.239349,45.111805 335.505371,44.561138 
	C338.297241,44.315788 338.894379,42.801426 339.012817,40.500660 
	C339.145844,37.916473 337.499146,37.505180 335.500000,37.503880 
	C323.497681,37.496063 311.495361,37.500000 299.236664,37.500000 
	C298.784302,41.427601 298.633942,44.121948 303.486420,44.629852 
	C307.394653,45.038921 308.453278,48.351162 308.528046,51.999424 
	C308.613770,56.180347 308.913574,60.356880 309.095795,64.038795 
	C310.677979,65.844223 315.035187,63.555031 313.500000,68.000000 
"/>
<path fill="none" opacity="1.000000" stroke="#000000" stroke-linecap="round" stroke-linejoin="round" stroke-width="3.000000"
	d="
M104.500000,100.500000 
	C108.418571,108.446480 104.379959,114.958267 95.499992,114.997467 
	C92.000053,115.012917 88.500000,115.000000 84.999695,115.000000 
	C84.251434,113.000000 84.251434,111.000000 84.999695,109.000000 
	C92.499992,107.590027 92.499992,107.590027 92.500000,99.500000 
	C92.500000,93.162277 92.500000,86.824562 92.500000,80.250000 
	C84.833336,80.250000 77.666664,80.250000 70.000000,80.250000 
	C70.000000,87.665535 70.221642,94.842636 69.903084,101.995682 
	C69.752060,105.386688 71.229576,107.604568 74.013313,107.847260 
	C78.791367,108.263802 78.690163,111.163223 78.466614,114.504509 
	C74.977951,115.017113 71.412079,116.299377 68.877197,112.073662 
	C68.186180,110.921715 66.000000,110.666664 64.500000,110.000000 
"/>
<path fill="none" opacity="1.000000" stroke="#000000" stroke-linecap="round" stroke-linejoin="round" stroke-width="3.000000"
	d="
M323.500000,201.500000 
	C325.666656,201.982147 327.833344,202.433899 330.455078,201.009521 
	C330.229065,196.502075 331.318024,191.699432 330.950562,186.468353 
	C330.580017,181.193390 329.630676,175.463470 331.389587,169.964676 
	C332.066681,167.847931 332.076111,165.142410 331.379395,163.039963 
	C329.954468,158.739975 330.551392,154.287933 331.742859,150.577988 
	C334.308868,142.587906 328.807129,139.222397 324.463135,135.038254 
	C322.185425,132.844345 319.540192,132.732574 317.521576,135.515656 
	C311.827515,143.366226 304.537598,140.681824 297.535583,138.391205 
	C294.702850,137.464478 292.025330,136.350693 288.700623,136.543365 
	C288.551300,138.316071 288.395355,140.167023 288.178528,142.741119 
	C285.478394,140.581650 283.332184,138.655548 280.975616,137.035461 
	C278.246979,135.159576 275.181335,134.574356 272.530853,137.033249 
	C266.553375,142.578629 260.401855,140.929123 253.976562,138.052338 
	C251.021011,136.729050 248.049286,134.849258 244.184326,135.775574 
	C243.601608,145.060883 243.987106,154.072296 245.844284,162.980347 
	C246.031738,163.879547 246.510132,164.666122 245.986542,165.491470 
	C243.311539,169.708099 244.024460,174.415878 244.013779,179.000031 
	C243.977631,194.499954 244.000000,210.000000 244.000000,225.500000 
	C244.000000,227.183334 244.000000,228.866669 244.000000,230.968552 
	C249.750870,231.063126 254.852280,231.173737 259.021729,227.021835 
	C261.205902,224.846848 261.375671,221.920853 259.842102,220.135635 
	C257.691833,217.632492 258.382141,215.453705 259.633667,213.589752 
	C260.609924,212.135742 260.453156,210.868484 260.472321,209.499619 
	C260.542328,204.500595 260.011505,199.440414 260.612518,194.513733 
	C261.555328,186.785339 258.929535,180.437805 254.500000,174.500000 
"/>
<path fill="none" opacity="1.000000" stroke="#000000" stroke-linecap="round" stroke-linejoin="round" stroke-width="3.000000"
	d="
M457.000000,42.500000 
	C459.421173,46.318554 459.427856,50.893353 460.893524,55.037659 
	C463.538940,62.517906 463.269043,62.613361 472.000000,61.432369 
	C472.000000,55.008549 472.109039,48.501778 471.960236,42.000912 
	C471.866638,37.911427 467.605957,37.659508 465.452911,37.243965 
	C454.496826,35.129387 443.377014,34.123043 432.505096,38.014217 
	C422.817139,41.481636 414.425232,46.821121 410.133209,56.558716 
	C408.208679,60.925018 406.640656,65.965218 410.500000,70.500000 
"/>
<path fill="none" opacity="1.000000" stroke="#000000" stroke-linecap="round" stroke-linejoin="round" stroke-width="2.000000"
	d="
M109.500000,38.000000 
	C102.189224,36.840942 94.829384,37.830925 87.500351,37.492470 
	C85.971916,37.421890 84.454742,37.730324 84.584511,39.493782 
	C84.709991,41.199055 83.956841,43.828712 87.001114,43.977222 
	C92.440933,44.242607 92.735008,47.711857 92.564751,52.002571 
	C92.313843,58.325947 92.500000,64.666664 92.500000,71.250000 
	C85.166664,71.250000 77.833336,71.250000 70.000000,71.250000 
	C70.000000,63.340580 69.956093,55.669872 70.028427,48.000267 
	C70.048500,45.871914 71.018326,44.534702 73.498589,44.455711 
	C77.224098,44.337059 79.326935,42.577999 78.500000,38.500000 
"/>
<path fill="none" opacity="1.000000" stroke="#000000" stroke-linecap="round" stroke-linejoin="round" stroke-width="3.000000"
	d="
M106.000000,110.000000 
	C109.494453,118.853668 116.895027,113.384911 122.247658,115.183090 
	C123.059616,110.308533 122.711060,106.986771 116.991821,107.951515 
	C115.014420,108.285057 113.995575,107.028816 113.996216,105.000000 
	C114.002495,85.165268 114.000000,65.330536 114.000000,46.162521 
	C117.610336,43.673714 124.711594,46.408485 122.161613,38.117958 
	C119.736435,37.116337 117.171761,37.039104 114.413071,38.868938 
	C113.682518,39.353512 111.447105,41.756516 110.500000,38.500000 
"/>
<path fill="none" opacity="1.000000" stroke="#000000" stroke-linecap="round" stroke-linejoin="round" stroke-width="3.000000"
	d="
M444.000000,179.000000 
	C442.342743,178.763901 440.685486,178.527802 439.022003,178.290817 
	C438.424805,183.969330 438.424774,183.977097 443.500000,183.997314 
	C446.999969,184.011261 450.501068,184.052368 453.999603,183.980881 
	C456.195618,183.936020 458.012726,184.205231 458.021393,187.265228 
	C453.832581,189.490356 449.203094,185.973679 444.792908,188.194534 
	C444.372742,193.655899 443.963623,199.330215 443.492859,204.999405 
	C442.953400,211.495911 441.731659,217.851318 439.517059,224.006134 
	C438.787750,226.032928 437.412354,228.612579 440.066284,229.858810 
	C442.035919,230.783707 444.142090,229.311951 445.490265,227.492783 
	C448.189667,223.850388 450.783051,220.128738 453.512512,216.509430 
	C457.060730,211.804413 457.972656,211.658936 463.500000,214.500000 
"/>
<path fill="none" opacity="1.000000" stroke="#000000" stroke-linecap="round" stroke-linejoin="round" stroke-width="2.000000"
	d="
M209.000000,62.000000 
	C207.081299,63.446415 207.506500,65.540558 207.505051,67.500000 
	C207.495361,80.666664 207.500000,93.833336 207.500046,107.000168 
	C204.386887,109.354111 199.620117,106.212662 197.058975,110.039474 
	C196.223190,111.288292 195.990967,113.000000 197.080276,114.750000 
	C206.833328,114.750000 216.666672,114.750000 226.500000,114.750000 
	C226.500000,112.833336 226.500000,111.166664 226.500000,109.500000 
"/>
<path fill="none" opacity="1.000000" stroke="#000000" stroke-linecap="round" stroke-linejoin="round" stroke-width="2.000000"
	d="
M390.500000,42.000000 
	C386.579102,46.808933 385.901031,52.932888 384.095795,58.530888 
	C378.010803,77.400024 372.064636,96.316101 366.796570,115.443977 
	C365.999023,118.339813 365.950500,119.823112 368.526855,120.374573 
	C370.628357,120.824409 370.231842,122.445694 371.000000,123.500000 
"/>
<path fill="none" opacity="1.000000" stroke="#000000" stroke-linecap="round" stroke-linejoin="round" stroke-width="3.000000"
	d="
M314.500000,71.500000 
	C314.906677,67.044418 312.077515,67.981926 308.906067,68.157143 
	C309.339508,76.666664 308.704071,84.807487 309.359711,93.011215 
	C309.674164,96.946121 308.770264,101.060287 307.896606,104.976944 
	C307.388672,107.254150 306.405853,107.394234 299.250000,109.058128 
	C299.250000,110.833336 299.250000,112.666664 299.250000,115.096672 
	C319.336029,114.463066 339.191803,115.995216 359.500000,114.088692 
	C359.500000,106.340820 359.500000,98.920410 359.500000,91.500000 
"/>
<path fill="none" opacity="1.000000" stroke="#000000" stroke-linecap="round" stroke-linejoin="round" stroke-width="3.000000"
	d="
M291.500000,43.000000 
	C284.816772,44.553532 285.002869,49.687408 284.945648,54.999416 
	C284.821747,66.499382 284.640625,78.036667 284.907501,89.490509 
	C285.043915,95.345253 284.188568,101.624359 286.404114,107.535934 
	C287.470551,110.381348 284.239685,114.033974 281.001099,113.955002 
	C274.667725,113.800560 268.321930,114.537308 261.990326,113.562767 
	C260.388855,113.316269 258.667999,113.845078 256.971893,114.020737 
	C255.130981,112.321426 256.356140,110.361565 256.044678,109.081215 
	C258.793976,105.971863 263.610718,109.573486 264.853760,105.455856 
	C265.637665,102.859161 265.000000,99.833336 265.000000,97.000000 
	C265.000000,94.833336 264.896423,92.660538 265.024139,90.501427 
	C265.219086,87.205574 266.785767,87.150917 269.000000,89.000000 
"/>
<path fill="none" opacity="1.000000" stroke="#000000" stroke-linecap="round" stroke-linejoin="round" stroke-width="2.000000"
	d="
M524.500000,147.000000 
	C525.582825,145.394760 527.986877,146.762100 529.228027,144.488464 
	C529.377319,143.017548 527.318848,140.885025 529.484680,138.982590 
	C531.343811,137.349609 530.589722,135.656342 528.963318,134.554092 
	C527.191162,133.353027 525.097900,132.953415 523.004456,134.008789 
	C522.804504,134.109558 522.610596,134.304535 522.508118,134.504150 
	C519.268127,140.815292 513.392395,139.471405 507.999969,139.495087 
	C502.833435,139.517792 497.666351,139.466461 492.500092,139.511169 
	C488.726532,139.543823 485.447052,138.890228 482.415710,136.091278 
	C478.177979,132.178421 476.093292,132.536453 472.000000,136.500000 
	C467.557251,140.801910 458.326111,140.758209 453.483734,136.518570 
	C451.085083,134.418488 448.538330,132.436310 444.382233,134.277557 
	C444.853424,142.000000 443.627838,150.049759 445.136353,157.974045 
	C445.693237,160.899460 444.187317,163.218216 444.344360,166.008759 
	C444.633270,171.141830 445.059052,176.362122 444.000000,181.500000 
"/>
<path fill="none" opacity="1.000000" stroke="#000000" stroke-linecap="round" stroke-linejoin="round" stroke-width="2.000000"
	d="
M151.000000,101.500000 
	C149.903015,96.698746 150.587479,91.830902 150.540634,86.999603 
	C150.419464,74.500778 150.506012,61.999996 150.494186,49.500004 
	C150.492157,47.362007 150.890289,44.585781 147.512680,45.085690 
	C144.407272,45.545315 140.060272,42.740227 138.508530,48.002514 
	C137.627991,50.988598 136.779739,53.986393 136.013535,57.003437 
	C135.046036,60.813007 132.800217,62.470379 129.000473,61.996246 
	C125.237480,61.526703 125.503372,58.674583 125.501389,56.000000 
	C125.496941,49.992352 125.500000,43.984695 125.500000,37.177822 
	C128.500000,37.831017 130.500000,36.896336 132.500000,38.000000 
"/>
<path fill="none" opacity="1.000000" stroke="#000000" stroke-linecap="round" stroke-linejoin="round" stroke-width="3.000000"
	d="
M481.000000,52.500000 
	C477.499695,62.892937 482.996704,73.137146 489.460510,77.557739 
	C493.935822,80.618416 498.866638,82.774490 503.530060,85.447563 
	C507.528259,87.739342 511.594696,89.696701 514.040955,93.976608 
	C517.858459,100.655724 515.906006,106.314835 508.476013,108.931908 
	C507.703827,109.203911 507.033264,109.399841 506.500000,110.000000 
"/>
<path fill="none" opacity="1.000000" stroke="#000000" stroke-linecap="round" stroke-linejoin="round" stroke-width="3.000000"
	d="
M542.000000,52.500000 
	C538.499695,62.892921 543.996704,73.137138 550.460510,77.557739 
	C554.935852,80.618416 559.866638,82.774513 564.530029,85.447563 
	C568.528259,87.739380 572.594727,89.696693 575.040955,93.976601 
	C578.858459,100.655708 576.906006,106.314842 569.476013,108.931900 
	C568.703796,109.203903 568.033264,109.399841 567.500000,110.000000 
"/>
<path fill="none" opacity="1.000000" stroke="#000000" stroke-linecap="round" stroke-linejoin="round" stroke-width="2.000000"
	d="
M291.000000,38.000000 
	C283.020325,36.857189 274.998718,37.677322 266.999054,37.572521 
	C264.104950,37.534611 263.801819,40.395000 262.994873,42.498028 
	C258.005096,55.501957 253.000000,68.500000 248.000000,81.500000 
"/>
<path fill="none" opacity="1.000000" stroke="#000000" stroke-linecap="round" stroke-linejoin="round" stroke-width="4.000000"
	d="
M213.500000,189.000000 
	C208.614685,187.459305 203.934082,186.939407 199.439163,190.421463 
	C197.894135,191.618347 197.430008,192.657730 197.453094,194.500580 
	C197.559509,202.999252 197.479004,211.500076 197.507797,219.999969 
	C197.525330,225.174484 198.917572,226.107117 191.022415,228.571808 
	C187.221878,229.758240 183.461716,230.571533 179.500000,230.500000 
"/>
<path fill="none" opacity="1.000000" stroke="#000000" stroke-linecap="round" stroke-linejoin="round" stroke-width="3.000000"
	d="
M313.000000,181.500000 
	C314.107513,178.166672 313.163300,174.833328 313.604034,171.580338 
	C306.518890,170.637985 306.518890,170.637985 302.000000,175.000000 
	C303.960327,178.236755 307.955261,178.572372 310.518372,180.980438 
	C312.282806,182.638123 313.870239,184.398010 311.454712,186.446579 
	C308.957611,188.564346 308.961426,191.185944 308.985535,194.000122 
	C309.034027,199.666382 309.000000,205.333328 309.000000,210.948853 
	C310.249847,211.834641 311.663635,211.357559 313.591583,211.627396 
	C313.132629,203.500000 314.165863,195.500000 313.000000,187.500000 
"/>
<path fill="none" opacity="1.000000" stroke="#000000" stroke-linecap="round" stroke-linejoin="round" stroke-width="2.000000"
	d="
M346.500000,189.000000 
	C344.345184,188.023697 342.549255,188.150360 342.533051,191.000183 
	C342.458221,204.168533 342.500000,217.337555 342.500000,230.433502 
	C352.136169,231.715149 356.839203,230.054443 359.415802,223.964386 
	C361.080750,220.029221 359.381989,215.661316 359.961273,211.494614 
	C360.466461,207.860718 359.343994,204.121689 360.500000,200.500000 
"/>
<path fill="none" opacity="1.000000" stroke="#000000" stroke-linecap="round" stroke-linejoin="round" stroke-width="3.000000"
	d="
M286.500000,148.500000 
	C286.500000,156.000000 286.373535,163.503418 286.576111,170.997940 
	C286.637848,173.281296 285.919922,175.134430 283.985168,175.385864 
	C279.367340,175.986008 274.824158,179.499741 269.979645,176.028397 
	C268.952728,175.292587 267.666656,175.094543 266.250000,176.172272 
	C266.250000,190.833328 266.250000,205.666672 266.250000,220.861115 
	C270.358276,221.405136 273.988373,220.202621 277.468567,218.915039 
	C279.983948,217.984421 281.030243,216.175247 280.155823,212.957657 
	C279.198730,209.435837 278.084564,205.975845 277.000000,202.500000 
"/>
<path fill="none" opacity="1.000000" stroke="#000000" stroke-linecap="round" stroke-linejoin="round" stroke-width="2.000000"
	d="
M194.500000,38.000000 
	C189.865677,36.927639 185.164536,37.570518 180.499741,37.536629 
	C166.500473,37.434898 152.499908,37.476448 138.500092,37.526440 
	C136.495697,37.533596 134.045471,36.666698 133.000000,39.500000 
"/>
<path fill="none" opacity="1.000000" stroke="#000000" stroke-linecap="round" stroke-linejoin="round" stroke-width="3.000000"
	d="
M367.500000,147.000000 
	C364.945557,151.507355 361.151581,152.986862 355.992493,152.600143 
	C350.187012,152.164963 344.323822,152.500000 338.566498,152.500000 
	C337.706635,158.964996 337.706604,158.982742 343.500000,158.995651 
	C351.333313,159.013123 359.166656,158.992691 367.000000,159.004364 
	C369.422241,159.007980 375.391205,163.559998 375.944183,166.012589 
	C376.166809,166.999924 375.968933,167.974442 374.543671,168.599548 
	C372.972351,169.288742 371.740082,170.750977 369.855255,172.288193 
	C364.785004,170.708984 358.032104,174.028381 352.000000,170.500000 
"/>
<path fill="none" opacity="1.000000" stroke="#000000" stroke-linecap="round" stroke-linejoin="round" stroke-width="2.000000"
	d="
M198.500000,184.000000 
	C202.962097,185.190247 207.509857,184.067093 212.250000,184.620529 
	C212.250000,176.833328 212.250000,169.166672 212.250000,161.250000 
	C207.166672,161.250000 202.333328,161.250000 197.500000,161.250000 
	C197.500000,168.833328 197.500000,176.166672 197.500000,183.500000 
"/>
<path fill="none" opacity="1.000000" stroke="#000000" stroke-linecap="round" stroke-linejoin="round" stroke-width="3.000000"
	d="
M363.500000,173.000000 
	C361.604614,177.896667 357.885010,179.095993 352.993042,178.564011 
	C349.854706,178.222748 346.649109,178.500000 343.250000,178.500000 
	C343.250000,180.833328 343.250000,182.666672 343.250000,185.000000 
	C352.160248,185.000000 360.830200,184.981628 369.499939,185.014740 
	C371.338959,185.021759 373.228180,184.656647 375.000000,185.500000 
"/>
<path fill="none" opacity="1.000000" stroke="#000000" stroke-linecap="round" stroke-linejoin="round" stroke-width="3.000000"
	d="
M456.500000,214.500000 
	C462.165558,223.940338 471.221161,227.580582 481.503448,227.881775 
	C496.990173,228.335434 512.500183,227.963379 527.999756,228.044952 
	C530.005188,228.055496 531.320129,226.757629 531.351990,225.496262 
	C531.414490,223.027313 532.613586,220.403534 530.999756,217.996643 
	C532.634338,216.289139 536.054749,218.864731 537.254883,214.600388 
	C531.192444,214.114029 527.421875,207.557343 520.000000,208.653046 
	C520.000000,209.638916 520.036194,210.321838 519.991760,210.999466 
	C519.918213,212.120850 520.330627,212.835358 521.500000,213.000000 
"/>
<path fill="none" opacity="1.000000" stroke="#000000" stroke-linecap="round" stroke-linejoin="round" stroke-width="3.000000"
	d="
M247.500000,82.500000 
	C243.194199,81.759422 243.768646,77.503387 242.683701,74.922768 
	C237.924179,63.601952 233.764053,52.025208 229.561935,40.477463 
	C228.778427,38.324284 227.628571,37.346893 225.501633,37.520126 
	C222.503891,37.764278 219.445160,36.846317 216.500000,38.000000 
"/>
<path fill="none" opacity="1.000000" stroke="#000000" stroke-linecap="round" stroke-linejoin="round" stroke-width="4.000000"
	d="
M588.000000,79.000000 
	C592.385193,78.956963 594.024841,81.745171 595.030212,85.491890 
	C597.636047,95.202667 594.300598,106.656624 586.453125,112.436317 
	C579.957214,117.220551 572.297913,117.771400 564.500000,117.000000 
"/>
<path fill="none" opacity="1.000000" stroke="#000000" stroke-linecap="round" stroke-linejoin="round" stroke-width="4.000000"
	d="
M527.000000,79.000000 
	C531.385193,78.956963 533.024841,81.745171 534.030273,85.491882 
	C536.636047,95.202675 533.300598,106.656647 525.453125,112.436317 
	C518.957214,117.220573 511.297943,117.771400 503.500000,117.000000 
"/>
<path fill="none" opacity="1.000000" stroke="#000000" stroke-linecap="round" stroke-linejoin="round" stroke-width="3.000000"
	d="
M50.000000,96.500000 
	C49.177994,97.002831 49.524101,97.815445 49.511650,98.500214 
	C49.358467,106.922119 49.364693,106.922234 40.750000,108.547157 
	C40.750000,110.500000 40.750000,112.500000 40.750000,115.130898 
	C50.498238,114.232979 60.038200,116.344124 69.500000,114.000000 
"/>
<path fill="none" opacity="1.000000" stroke="#000000" stroke-linecap="round" stroke-linejoin="round" stroke-width="3.000000"
	d="
M265.500000,57.500000 
	C261.897797,72.320938 254.814545,85.927559 250.500000,100.500000 
	C246.151993,103.070419 248.470566,108.048859 246.533295,111.518593 
	C245.483139,113.399513 244.792801,115.326759 241.995468,115.044960 
	C239.542236,114.797821 236.737152,115.628738 235.512009,112.495308 
	C233.302872,106.845238 231.093704,101.192879 229.043137,95.484505 
	C228.403000,93.702469 227.178696,92.075562 229.316605,89.825722 
	C230.688782,88.381706 228.835449,85.589256 228.000000,83.500000 
"/>
<path fill="none" opacity="1.000000" stroke="#000000" stroke-linecap="round" stroke-linejoin="round" stroke-width="3.000000"
	d="
M376.500000,147.500000 
	C378.907349,143.686172 378.185364,140.572556 374.517212,137.975693 
	C373.078827,136.957397 371.879578,135.608093 370.490692,134.511780 
	C367.270020,131.969528 364.817810,132.313522 362.552704,136.032104 
	C360.624603,139.197479 358.120300,140.339432 354.495483,140.058304 
	C351.016418,139.788483 347.500000,140.000000 344.000000,140.000000 
	C343.032623,141.936432 344.165314,143.681946 344.271423,146.110809 
	C348.408600,145.576935 352.524231,147.241257 356.000000,144.000000 
"/>
<path fill="none" opacity="1.000000" stroke="#000000" stroke-linecap="round" stroke-linejoin="round" stroke-width="4.000000"
	d="
M412.500000,205.500000 
	C415.690796,210.482315 413.143585,215.842270 413.393738,221.005142 
	C413.791718,229.218048 413.492767,229.186356 405.004272,230.526993 
	C402.337006,230.948227 399.749756,232.162918 396.961731,231.109619 
	C395.655579,226.236389 397.394165,221.260178 396.000000,216.500000 
"/>
<path fill="none" opacity="1.000000" stroke="#000000" stroke-linecap="round" stroke-linejoin="round" stroke-width="3.000000"
	d="
M400.500000,43.500000 
	C400.778992,51.302666 397.120453,57.961445 394.643158,65.050034 
	C390.454895,77.034424 387.166412,89.333260 383.500275,101.500084 
	C382.998291,103.166145 382.776093,104.987480 381.947906,106.470924 
	C379.520996,110.818062 376.295410,111.078590 372.000000,107.500000 
"/>
<path fill="none" opacity="1.000000" stroke="#000000" stroke-linecap="round" stroke-linejoin="round" stroke-width="3.000000"
	d="
M330.500000,202.000000 
	C331.966339,203.811157 332.101166,206.260727 331.354675,207.935211 
	C329.918915,211.155731 329.916443,214.087631 330.365601,217.517593 
	C331.240601,224.199326 328.157166,227.922989 320.984772,229.427460 
	C317.911011,230.072220 314.670441,229.922043 311.623718,230.125183 
	C309.256927,218.165390 309.246704,218.047256 297.505585,219.064560 
	C293.438690,219.416946 291.076935,218.383316 291.135193,213.925842 
	C287.675201,214.337280 284.286377,213.394058 281.000000,214.500000 
"/>
<path fill="none" opacity="1.000000" stroke="#000000" stroke-linecap="round" stroke-linejoin="round" stroke-width="3.000000"
	d="
M216.500000,66.000000 
	C215.371231,71.638367 216.157806,77.334122 216.035034,83.000755 
	C215.887054,89.830887 216.015503,96.666718 215.990463,103.499962 
	C215.983063,105.522507 215.831131,107.551201 217.250000,109.250000 
"/>
<path fill="none" opacity="1.000000" stroke="#000000" stroke-linecap="round" stroke-linejoin="round" stroke-width="3.000000"
	d="
M534.500000,155.000000 
	C530.872925,157.588394 529.842407,161.167130 529.942383,165.501328 
	C530.138367,173.996811 529.979553,182.500076 530.013062,190.999954 
	C530.022461,193.387192 530.134460,195.750473 527.485046,196.767502 
	C527.660583,199.506927 530.319458,199.070831 531.626404,200.373138 
	C534.706116,203.441895 533.952332,206.970245 534.000000,210.500000 
"/>
<path fill="none" opacity="1.000000" stroke="#000000" stroke-linecap="round" stroke-linejoin="round" stroke-width="3.000000"
	d="
M559.000000,110.000000 
	C553.990234,106.887779 552.516541,102.076370 551.902649,96.510735 
	C551.346680,91.469666 547.973328,89.385033 543.500000,90.499992 
	C541.263489,91.057434 539.837830,94.690735 541.563660,95.327400 
	C546.115967,97.006783 543.526184,99.968712 543.500000,102.500000 
"/>
<path fill="none" opacity="1.000000" stroke="#000000" stroke-linecap="round" stroke-linejoin="round" stroke-width="3.000000"
	d="
M498.000000,110.000000 
	C492.990234,106.887779 491.516541,102.076378 490.902679,96.510735 
	C490.346649,91.469673 486.973328,89.385056 482.500000,90.500008 
	C480.263458,91.057457 478.837830,94.690735 480.563660,95.327400 
	C485.115997,97.006783 482.526154,99.968712 482.500000,102.500000 
"/>
<path fill="none" opacity="1.000000" stroke="#000000" stroke-linecap="round" stroke-linejoin="round" stroke-width="3.000000"
	d="
M434.500000,187.500000 
	C432.176666,185.437775 430.297577,183.079407 429.430176,179.749771 
	C432.912292,178.547958 433.069641,175.640488 433.027344,172.499634 
	C432.937622,165.834167 433.000000,159.166672 433.000000,152.500000 
	C433.000000,151.333328 432.793793,150.122437 433.033081,149.007095 
	C434.755951,140.976440 434.253174,139.388443 428.500000,135.500000 
	C423.729370,132.275635 420.630859,132.645935 417.078918,137.557068 
	C415.290649,140.029617 413.274078,140.619888 410.498840,140.540436 
	C405.502930,140.397385 400.487793,140.708725 395.504822,140.417633 
	C392.744812,140.256424 389.931152,139.746246 387.474854,138.036133 
	C384.974213,136.295166 382.100494,135.425003 378.968811,135.503784 
	C377.666534,136.583298 379.346039,138.419846 378.000000,139.500000 
"/>
<path fill="none" opacity="1.000000" stroke="#000000" stroke-linecap="round" stroke-linejoin="round" stroke-width="2.000000"
	d="
M358.500000,91.000000 
	C352.072906,90.130638 351.201141,90.530701 349.021698,96.008636 
	C347.496124,99.843094 347.085480,103.948364 346.731720,108.632240 
	C341.166656,108.155228 335.833344,109.109222 330.500000,108.000000 
"/>
<path fill="none" opacity="1.000000" stroke="#000000" stroke-linecap="round" stroke-linejoin="round" stroke-width="3.000000"
	d="
M232.000000,160.500000 
	C233.968185,159.575378 234.893417,158.248627 232.968979,156.534836 
	C231.284302,155.034561 229.313019,153.860260 227.503586,152.495239 
	C220.410538,147.144363 220.413025,147.134796 214.502991,153.003006 
	C213.660492,153.839539 212.971573,154.687195 211.495987,154.540268 
	C207.179688,154.110489 202.795822,155.141815 198.500000,154.000000 
"/>
<path fill="none" opacity="1.000000" stroke="#000000" stroke-linecap="round" stroke-linejoin="round" stroke-width="2.000000"
	d="
M77.500000,38.000000 
	C67.166664,37.145065 56.829777,37.168324 46.503174,38.037701 
	C44.573685,38.200142 41.854191,38.020859 43.000000,41.500000 
"/>
<path fill="none" opacity="1.000000" stroke="#000000" stroke-linecap="round" stroke-linejoin="round" stroke-width="2.000000"
	d="
M178.000000,192.500000 
	C179.130539,203.151611 178.161469,213.836563 178.529739,224.498978 
	C178.587204,226.162643 177.941299,227.922531 179.000000,229.500000 
"/>
<path fill="none" opacity="1.000000" stroke="#000000" stroke-linecap="round" stroke-linejoin="round" stroke-width="3.000000"
	d="
M230.500000,191.500000 
	C228.433624,192.970474 226.257797,193.118500 224.004913,191.990173 
	C223.471725,191.723145 223.041641,191.222458 222.493729,191.016678 
	C214.820541,188.135086 212.835602,189.891800 214.000000,198.500000 
	C223.356354,199.744431 225.405838,198.956161 227.000000,193.500000 
"/>
<path fill="none" opacity="1.000000" stroke="#000000" stroke-linecap="round" stroke-linejoin="round" stroke-width="3.000000"
	d="
M480.000000,96.500000 
	C478.911499,100.629791 479.758667,104.836639 479.509735,109.000580 
	C479.416321,110.563637 480.149689,111.894966 481.516327,112.460579 
	C486.949310,114.709160 492.334045,117.561928 498.500000,115.000000 
"/>
<path fill="none" opacity="1.000000" stroke="#000000" stroke-linecap="round" stroke-linejoin="round" stroke-width="3.000000"
	d="
M541.000000,96.500000 
	C539.911499,100.629791 540.758728,104.836639 540.509827,109.000587 
	C540.416382,110.563644 541.149658,111.894974 542.516296,112.460579 
	C547.949280,114.709160 553.334045,117.561928 559.500000,115.000000 
"/>
<path fill="none" opacity="1.000000" stroke="#000000" stroke-linecap="round" stroke-linejoin="round" stroke-width="3.000000"
	d="
M393.000000,209.750000 
	C392.076477,208.931320 391.422028,210.324448 390.493958,210.018295 
	C384.936890,208.185104 381.350067,210.565277 378.900391,215.805771 
	C378.373871,210.271439 376.178284,204.897629 380.020813,200.016388 
	C382.701904,196.610611 379.457458,194.870056 377.885254,193.102051 
	C376.422760,191.457397 373.868622,190.841644 372.029449,189.460754 
	C368.933685,187.136383 366.060547,187.279770 363.533600,190.030869 
	C360.545013,193.284576 357.583527,194.143890 353.962585,191.043716 
	C353.220886,190.408676 351.993469,190.351608 351.001221,189.996552 
	C348.138885,188.972321 346.426575,189.866074 347.130676,192.970367 
	C347.406921,194.188370 347.233826,195.347549 347.500000,196.500000 
"/>
<path fill="none" opacity="1.000000" stroke="#000000" stroke-linecap="round" stroke-linejoin="round" stroke-width="5.000000"
	d="
M503.500000,147.500000 
	C500.130829,147.012543 496.788483,146.706024 493.455475,145.639099 
	C489.693115,144.434753 488.116730,146.186890 488.002594,150.500061 
	C487.826141,157.166489 487.532501,163.834106 487.570770,170.499588 
	C487.584686,172.920654 486.815643,174.613174 485.000000,176.000000 
"/>
<path fill="none" opacity="1.000000" stroke="#000000" stroke-linecap="round" stroke-linejoin="round" stroke-width="3.000000"
	d="
M231.000000,160.250000 
	C233.985046,165.387115 230.260559,169.258286 228.366165,173.825089 
	C232.216949,177.206345 232.572128,181.594086 231.590134,186.517975 
	C231.078659,189.082642 231.500000,191.833328 231.500000,194.500000 
"/>
<path fill="none" opacity="1.000000" stroke="#000000" stroke-linecap="round" stroke-linejoin="round" stroke-width="3.000000"
	d="
M283.500000,193.000000 
	C286.166656,194.086945 288.833344,193.232010 291.750000,193.578232 
	C291.750000,191.166672 291.750000,189.333328 291.750000,186.939178 
	C288.500000,187.165085 285.500000,186.605316 282.520691,187.493103 
	C282.165039,189.707657 283.812592,192.741348 280.000000,193.500000 
"/>
<path fill="none" opacity="1.000000" stroke="#000000" stroke-linecap="round" stroke-linejoin="round" stroke-width="3.000000"
	d="
M461.500000,166.000000 
	C463.940369,167.061111 466.510834,166.170853 469.250000,166.601883 
	C469.250000,164.166672 469.250000,161.833328 469.250000,159.250000 
	C466.500000,159.250000 464.000000,159.250000 461.345490,159.250000 
	C460.355499,161.771408 462.395782,165.407715 458.011993,166.344910 
	C460.834290,170.165085 463.408936,173.429550 468.500000,172.500000 
"/>
<path fill="none" opacity="1.000000" stroke="#000000" stroke-linecap="round" stroke-linejoin="round" stroke-width="2.000000"
	d="
M392.250000,41.000000 
	C398.154419,44.761288 403.280853,44.622978 404.012238,32.802395 
	C400.372955,30.294325 396.354675,32.087997 392.266418,31.288336 
	C391.942139,34.488426 389.451813,36.590363 391.000000,39.500000 
"/>
<path fill="none" opacity="1.000000" stroke="#000000" stroke-linecap="round" stroke-linejoin="round" stroke-width="3.000000"
	d="
M416.500000,193.000000 
	C423.568909,198.464691 431.413605,202.886917 438.171539,208.834213 
	C436.300232,210.642838 436.300232,210.642838 430.000000,208.500000 
"/>
<path fill="none" opacity="1.000000" stroke="#000000" stroke-linecap="round" stroke-linejoin="round" stroke-width="2.000000"
	d="
M50.500000,42.000000 
	C50.202126,42.818260 48.896988,42.696022 48.962265,44.001884 
	C49.370338,52.164818 49.666664,60.333332 49.999996,68.500000 
"/>
<path fill="none" opacity="1.000000" stroke="#000000" stroke-linecap="round" stroke-linejoin="round" stroke-width="2.000000"
	d="
M197.000000,43.000000 
	C200.025955,44.391201 203.195602,44.872330 206.626785,44.361229 
	C208.260025,47.341480 207.368256,50.492344 207.451904,53.501335 
	C207.541504,56.725327 207.396912,59.823860 210.467926,62.044350 
	C212.211563,63.305092 211.859589,65.657120 212.500000,67.500000 
"/>
<path fill="none" opacity="1.000000" stroke="#000000" stroke-linecap="round" stroke-linejoin="round" stroke-width="3.000000"
	d="
M52.500000,69.500000 
	C51.534416,69.005417 50.032726,68.835037 50.095974,69.994766 
	C50.523098,77.826309 48.729805,85.749084 51.000000,93.500000 
"/>
<path fill="none" opacity="1.000000" stroke="#000000" stroke-linecap="round" stroke-linejoin="round" stroke-width="2.000000"
	d="
M378.000000,179.500000 
	C379.104218,173.860901 378.416626,168.163864 378.438873,162.499756 
	C378.458923,157.390732 374.836853,159.047897 372.000000,159.500000 
"/>
<path fill="none" opacity="1.000000" stroke="#000000" stroke-linecap="round" stroke-linejoin="round" stroke-width="3.000000"
	d="
M287.000000,175.000000 
	C288.449707,177.697464 291.348816,176.626389 293.486725,177.516785 
	C290.535583,181.249390 282.342102,181.731369 276.500000,178.500000 
"/>
<path fill="none" opacity="1.000000" stroke="#000000" stroke-linecap="round" stroke-linejoin="round" stroke-width="3.000000"
	d="
M386.000000,206.500000 
	C385.275787,202.369705 388.992615,199.750198 389.598724,196.016022 
	C389.804443,194.748260 390.279358,193.666672 389.182068,191.940262 
	C386.000000,192.268875 382.500000,191.481720 379.000000,192.500000 
"/>
<path fill="none" opacity="1.000000" stroke="#000000" stroke-linecap="round" stroke-linejoin="round" stroke-width="3.000000"
	d="
M283.500000,207.000000 
	C286.166656,208.086945 288.833344,207.232010 291.750000,207.578232 
	C291.750000,204.833328 291.750000,202.666672 291.750000,199.938004 
	C288.666656,200.204880 285.833344,199.517136 283.000000,200.500000 
"/>
<path fill="none" opacity="1.000000" stroke="#000000" stroke-linecap="round" stroke-linejoin="round" stroke-width="2.000000"
	d="
M507.500000,164.000000 
	C509.253601,165.043564 511.177551,164.213577 513.250000,164.601761 
	C513.250000,162.500000 513.250000,160.500000 513.250000,158.250000 
	C510.833344,158.250000 508.666656,158.250000 506.500000,158.250000 
	C506.500000,160.166672 506.500000,161.833328 506.500000,163.500000 
"/>
<path fill="none" opacity="1.000000" stroke="#000000" stroke-linecap="round" stroke-linejoin="round" stroke-width="2.000000"
	d="
M215.000000,43.500000 
	C213.419830,41.805908 216.097244,40.584881 215.336823,38.566818 
	C209.599854,36.869175 203.560760,37.239655 197.500000,38.000000 
"/>
<path fill="none" opacity="1.000000" stroke="#000000" stroke-linecap="round" stroke-linejoin="round" stroke-width="3.000000"
	d="
M215.500000,58.500000 
	C216.581711,66.316841 221.621597,72.720642 223.184265,80.462807 
	C224.023193,84.619247 227.243622,81.999519 229.500000,81.000000 
"/>
<path fill="none" opacity="1.000000" stroke="#000000" stroke-linecap="round" stroke-linejoin="round" stroke-width="3.000000"
	d="
M514.000000,199.000000 
	C516.457031,201.340683 516.808472,202.885178 513.044983,204.598755 
	C506.296600,207.671295 499.685913,211.017029 492.500000,213.000000 
"/>
<path fill="none" opacity="1.000000" stroke="#000000" stroke-linecap="round" stroke-linejoin="round" stroke-width="2.000000"
	d="
M306.500000,152.000000 
	C308.591248,153.146988 310.849640,152.121399 313.145813,152.610916 
	C313.686890,150.833328 313.686890,149.166672 313.187164,147.524887 
	C305.912537,146.557343 305.912537,146.557343 305.500000,151.500000 
"/>
<path fill="none" opacity="1.000000" stroke="#000000" stroke-linecap="round" stroke-linejoin="round" stroke-width="2.000000"
	d="
M507.500000,189.000000 
	C509.253601,190.043564 511.177551,189.213577 513.154053,189.583786 
	C513.686890,187.833328 513.686890,186.166672 513.019836,183.975266 
	C511.000000,184.150146 509.000000,183.594070 506.500000,184.725754 
	C506.500000,185.792114 506.500000,187.146057 506.500000,188.500000 
"/>
<path fill="none" opacity="1.000000" stroke="#000000" stroke-linecap="round" stroke-linejoin="round" stroke-width="2.000000"
	d="
M265.000000,66.500000 
	C266.101807,71.804108 265.199585,77.170868 265.500549,82.499969 
	C265.597351,84.213432 265.039612,86.058746 266.500000,87.500000 
"/>
<path fill="none" opacity="1.000000" stroke="#000000" stroke-linecap="round" stroke-linejoin="round" stroke-width="2.000000"
	d="
M519.500000,213.000000 
	C512.500000,213.815887 505.500000,213.815887 498.500000,213.000000 
"/>
<path fill="none" opacity="1.000000" stroke="#000000" stroke-linecap="round" stroke-linejoin="round" stroke-width="3.000000"
	d="
M304.500000,205.500000 
	C304.333344,204.000000 304.062408,202.502533 304.025940,200.999374 
	C303.978516,199.045135 303.392059,196.929504 301.924316,196.140869 
	C299.990784,195.101959 297.976746,197.026978 296.059814,197.676529 
	C295.355560,197.915161 295.333344,200.166672 295.000000,201.500000 
"/>
<path fill="none" opacity="1.000000" stroke="#000000" stroke-linecap="round" stroke-linejoin="round" stroke-width="3.000000"
	d="
M269.500000,154.500000 
	C269.500000,152.154755 269.500000,149.809525 269.500000,147.250000 
	C266.833344,147.250000 264.666656,147.250000 262.533813,147.250000 
	C261.407654,155.575531 262.560638,156.905899 269.000000,155.000000 
"/>
<path fill="none" opacity="1.000000" stroke="#000000" stroke-linecap="round" stroke-linejoin="round" stroke-width="2.000000"
	d="
M350.500000,167.000000 
	C349.278076,165.941986 347.829987,166.622528 346.497620,166.537231 
	C344.866882,166.432831 342.542969,166.008286 342.607056,168.497238 
	C342.668671,170.889374 344.310242,172.412781 346.998108,171.988083 
	C349.548401,171.585114 351.778870,170.778885 351.500000,167.500000 
"/>
<path fill="none" opacity="1.000000" stroke="#000000" stroke-linecap="round" stroke-linejoin="round" stroke-width="5.000000"
	d="
M395.500000,178.500000 
	C394.595245,182.166687 391.822418,183.219040 388.499969,183.499588 
	C386.500153,183.668488 384.502167,183.939941 382.499603,183.980576 
	C375.710297,184.118408 375.709656,184.086960 374.500000,190.500000 
"/>
<path fill="none" opacity="1.000000" stroke="#000000" stroke-linecap="round" stroke-linejoin="round" stroke-width="4.000000"
	d="
M177.500000,191.500000 
	C174.000000,191.500000 170.068222,190.474640 167.095383,191.726517 
	C161.888474,193.919174 156.378082,190.596817 151.500000,193.500000 
"/>
<path fill="none" opacity="1.000000" stroke="#000000" stroke-linecap="round" stroke-linejoin="round" stroke-width="5.000000"
	d="
M396.000000,177.500000 
	C396.703735,175.659286 398.147522,174.365173 399.970062,175.076706 
	C404.641998,176.900742 409.046143,175.912582 413.500000,174.500000 
"/>
<path fill="none" opacity="1.000000" stroke="#000000" stroke-linecap="round" stroke-linejoin="round" stroke-width="3.000000"
	d="
M429.000000,206.500000 
	C429.065643,209.793198 428.902771,212.953796 430.838440,216.099411 
	C432.068604,218.098480 429.781067,219.845947 428.038574,221.296356 
	C425.626831,223.303909 423.072662,222.470505 421.074799,221.364822 
	C418.852081,220.134689 417.454834,217.600571 417.085236,214.987946 
	C416.866852,213.444199 415.664795,213.001251 415.000000,212.000000 
"/>
<path fill="none" opacity="1.000000" stroke="#000000" stroke-linecap="round" stroke-linejoin="round" stroke-width="3.000000"
	d="
M269.500000,175.500000 
	C267.895691,171.634888 267.895691,171.634888 261.404694,172.512894 
	C260.183594,174.658386 262.050598,177.498947 260.000000,179.500000 
"/>
<path fill="none" opacity="1.000000" stroke="#000000" stroke-linecap="round" stroke-linejoin="round" stroke-width="3.000000"
	d="
M532.500000,202.500000 
	C527.074951,203.824341 521.808655,206.895309 516.000000,204.000000 
"/>
<path fill="none" opacity="1.000000" stroke="#000000" stroke-linecap="round" stroke-linejoin="round" stroke-width="4.000000"
	d="
M422.500000,144.000000 
	C426.452606,144.668182 428.086182,147.167999 427.996765,150.999924 
	C427.903656,154.991348 430.536041,159.580292 425.500000,162.500000 
"/>
<path fill="none" opacity="1.000000" stroke="#000000" stroke-linecap="round" stroke-linejoin="round" stroke-width="3.000000"
	d="
M363.000000,132.500000 
	C362.437927,127.155273 368.648621,122.440071 373.507385,124.482468 
	C374.704224,124.985588 375.233307,125.624474 375.031097,127.004555 
	C374.702667,129.246109 375.614502,131.935532 372.504639,133.013428 
	C371.806335,133.255463 371.166687,133.666687 370.500000,134.000015 
"/>
<path fill="none" opacity="1.000000" stroke="#000000" stroke-linecap="round" stroke-linejoin="round" stroke-width="3.000000"
	d="
M436.000000,187.750000 
	C435.833344,187.666656 435.568115,187.469376 435.514008,187.516174 
	C430.330353,191.998795 430.331390,192.000000 421.500000,192.000000 
"/>
<path fill="none" opacity="1.000000" stroke="#000000" stroke-linecap="round" stroke-linejoin="round" stroke-width="3.000000"
	d="
M485.500000,183.000000 
	C482.431458,185.265305 478.688995,183.037674 475.700775,184.316681 
	C474.040039,185.833328 475.682617,187.166672 475.500000,188.500000 
"/>
<path fill="none" opacity="1.000000" stroke="#000000" stroke-linecap="round" stroke-linejoin="round" stroke-width="2.000000"
	d="
M364.500000,160.000000 
	C362.305298,165.428131 357.703461,166.729736 352.500000,167.000000 
"/>
<path fill="none" opacity="1.000000" stroke="#000000" stroke-linecap="round" stroke-linejoin="round" stroke-width="3.000000"
	d="
M488.000000,184.000000 
	C490.089539,186.720230 488.785339,189.640076 488.443909,193.036774 
	C486.483154,191.402756 484.763306,189.924316 482.995453,188.505661 
	C479.378418,185.602997 476.803802,186.577728 475.000000,191.500000 
"/>
<path fill="none" opacity="1.000000" stroke="#000000" stroke-linecap="round" stroke-linejoin="round" stroke-width="4.000000"
	d="
M197.000000,141.500000 
	C198.086533,145.461670 197.223099,149.504593 197.500000,153.500000 
"/>
<path fill="none" opacity="1.000000" stroke="#000000" stroke-linecap="round" stroke-linejoin="round" stroke-width="4.000000"
	d="
M462.500000,172.500000 
	C460.291748,177.173752 456.283997,178.548416 451.500000,178.500000 
"/>
<path fill="none" opacity="1.000000" stroke="#000000" stroke-linecap="round" stroke-linejoin="round" stroke-width="3.000000"
	d="
M467.500000,195.500000 
	C465.480988,196.828506 464.673035,194.969086 463.493561,194.007919 
	C461.465820,192.355484 459.182617,191.355316 456.500000,191.500000 
"/>
<path fill="none" opacity="1.000000" stroke="#000000" stroke-linecap="round" stroke-linejoin="round" stroke-width="3.000000"
	d="
M526.500000,151.500000 
	C523.471130,144.852066 520.361206,144.153564 515.488770,148.988708 
	C514.735596,149.736115 513.833313,150.333344 513.000000,151.000000 
"/>
<path fill="none" opacity="1.000000" stroke="#000000" stroke-linecap="round" stroke-linejoin="round" stroke-width="3.000000"
	d="
M399.500000,216.500000 
	C401.456940,220.130875 402.171906,224.865723 407.500000,225.500000 
"/>
<path fill="none" opacity="1.000000" stroke="#000000" stroke-linecap="round" stroke-linejoin="round" stroke-width="4.000000"
	d="
M512.500000,171.500000 
	C510.500000,170.967545 508.500000,170.675018 506.500000,171.568665 
	C506.500000,173.166672 506.500000,174.833328 506.500000,176.500000 
"/>
<path fill="none" opacity="1.000000" stroke="#000000" stroke-linecap="round" stroke-linejoin="round" stroke-width="2.000000"
	d="
M513.000000,172.500000 
	C514.141296,173.891708 513.173340,175.517776 513.706665,177.649445 
	C511.500000,177.168976 509.500000,178.103668 507.500000,177.000000 
"/>
<path fill="none" opacity="1.000000" stroke="#000000" stroke-linecap="round" stroke-linejoin="round" stroke-width="2.000000"
	d="
M532.500000,144.500000 
	C533.530457,142.905685 535.099670,142.837982 537.025146,143.115936 
	C536.894714,146.062637 534.579285,146.137939 532.500000,146.500000 
"/>
<path fill="none" opacity="1.000000" stroke="#000000" stroke-linecap="round" stroke-linejoin="round" stroke-width="3.000000"
	d="
M371.000000,173.000000 
	C373.244904,176.682220 377.411957,178.991455 378.500000,183.500000 
"/>
<path fill="none" opacity="1.000000" stroke="#000000" stroke-linecap="round" stroke-linejoin="round" stroke-width="3.000000"
	d="
M357.000000,145.000000 
	C360.864990,146.953308 364.997833,145.812012 369.001770,145.948242 
	C373.834991,146.112701 376.674652,147.779678 377.500000,151.500000 
"/>
<path fill="none" opacity="1.000000" stroke="#000000" stroke-linecap="round" stroke-linejoin="round" stroke-width="4.000000"
	d="
M158.000000,159.000000 
	C155.268845,161.208023 155.213882,165.590454 151.500000,167.000000 
"/>
<path fill="none" opacity="1.000000" stroke="#000000" stroke-linecap="round" stroke-linejoin="round" stroke-width="3.000000"
	d="
M103.500000,56.500000 
	C103.829285,60.227623 105.343880,62.374825 109.500000,61.000000 
"/>
<path fill="none" opacity="1.000000" stroke="#000000" stroke-linecap="round" stroke-linejoin="round" stroke-width="3.000000"
	d="
M403.500000,192.500000 
	C405.158600,193.170120 405.142578,194.155838 405.203156,195.993301 
	C405.346985,200.353455 405.953308,204.964371 410.500000,207.500000 
"/>
<path fill="none" opacity="1.000000" stroke="#000000" stroke-linecap="round" stroke-linejoin="round" stroke-width="2.000000"
	d="
M52.500000,40.500000 
	C49.135315,41.009914 45.327480,39.304058 42.500000,42.500000 
"/>
<path fill="none" opacity="1.000000" stroke="#000000" stroke-linecap="round" stroke-linejoin="round" stroke-width="2.000000"
	d="
M469.500000,178.000000 
	C466.500000,178.830719 463.500000,178.830719 460.500000,178.000000 
"/>
<path fill="none" opacity="1.000000" stroke="#000000" stroke-linecap="round" stroke-linejoin="round" stroke-width="4.000000"
	d="
M230.500000,90.000000 
	C233.744385,91.417679 236.739700,93.188210 239.000000,96.000000 
"/>
<path fill="none" opacity="1.000000" stroke="#000000" stroke-linecap="round" stroke-linejoin="round" stroke-width="2.000000"
	d="
M407.500000,142.500000 
	C406.933929,147.132690 411.195068,146.499329 413.500000,148.000000 
"/>
<path fill="none" opacity="1.000000" stroke="#000000" stroke-linecap="round" stroke-linejoin="round" stroke-width="3.000000"
	d="
M469.000000,173.500000 
	C470.369080,175.396210 470.415192,179.371353 474.500000,177.000000 
"/>
<path fill="none" opacity="1.000000" stroke="#000000" stroke-linecap="round" stroke-linejoin="round" stroke-width="4.000000"
	d="
M414.500000,162.500000 
	C414.500000,165.166672 414.500000,167.833328 414.500000,170.500000 
"/>
<path fill="none" opacity="1.000000" stroke="#000000" stroke-linecap="round" stroke-linejoin="round" stroke-width="4.000000"
	d="
M395.500000,162.500000 
	C395.500000,165.166672 395.500000,167.833328 395.500000,170.500000 
"/>
<path fill="none" opacity="1.000000" stroke="#000000" stroke-linecap="round" stroke-linejoin="round" stroke-width="3.000000"
	d="
M423.500000,184.500000 
	C421.152222,185.409439 420.827942,187.417557 421.041443,189.495743 
	C421.246124,191.487991 420.563904,192.898773 419.000000,194.000000 
"/>
<path fill="none" opacity="1.000000" stroke="#000000" stroke-linecap="round" stroke-linejoin="round" stroke-width="3.000000"
	d="
M275.500000,186.500000 
	C280.276337,190.708939 280.840942,196.543091 277.009613,201.986343 
	C274.943054,202.319901 273.321533,201.043274 271.500000,200.500000 
"/>
<path fill="none" opacity="1.000000" stroke="#000000" stroke-linecap="round" stroke-linejoin="round" stroke-width="4.000000"
	d="
M395.500000,146.500000 
	C395.500000,149.166672 395.500000,151.833328 395.500000,154.500000 
"/>
<path fill="none" opacity="1.000000" stroke="#000000" stroke-linecap="round" stroke-linejoin="round" stroke-width="2.000000"
	d="
M225.500000,109.000000 
	C221.655182,108.325981 217.401352,106.541779 216.000000,112.500000 
"/>
<path fill="none" opacity="1.000000" stroke="#000000" stroke-linecap="round" stroke-linejoin="round" stroke-width="5.000000"
	d="
M415.000000,145.500000 
	C413.248444,149.094620 414.023285,152.804092 414.500000,156.500000 
"/>
<path fill="none" opacity="1.000000" stroke="#000000" stroke-linecap="round" stroke-linejoin="round" stroke-width="3.000000"
	d="
M255.500000,157.000000 
	C250.709961,160.475800 249.320953,164.959290 251.500000,170.500000 
"/>
<path fill="none" opacity="1.000000" stroke="#000000" stroke-linecap="round" stroke-linejoin="round" stroke-width="3.000000"
	d="
M348.500000,110.500000 
	C351.089722,111.275665 353.957886,111.355324 356.000000,113.500000 
"/>
<path fill="none" opacity="1.000000" stroke="#000000" stroke-linecap="round" stroke-linejoin="round" stroke-width="3.000000"
	d="
M427.500000,162.500000 
	C428.424622,164.921158 429.842682,167.276535 428.500000,170.000000 
"/>
<path fill="none" opacity="1.000000" stroke="#000000" stroke-linecap="round" stroke-linejoin="round" stroke-width="3.000000"
	d="
M378.000000,110.500000 
	C380.693146,115.350227 378.718750,119.482368 376.000000,123.500000 
"/>
<path fill="none" opacity="1.000000" stroke="#000000" stroke-linecap="round" stroke-linejoin="round" stroke-width="3.000000"
	d="
M487.000000,219.000000 
	C485.542786,221.023743 482.186035,221.320633 482.000000,224.500000 
"/>
<path fill="none" opacity="1.000000" stroke="#000000" stroke-linecap="round" stroke-linejoin="round" stroke-width="3.000000"
	d="
M55.500000,87.500000 
	C56.444965,91.338257 53.174809,92.787949 51.250000,95.000000 
"/>
<path fill="none" opacity="1.000000" stroke="#000000" stroke-linecap="round" stroke-linejoin="round" stroke-width="6.000000"
	d="
M355.000000,197.500000 
	C352.696838,201.410980 350.830841,205.340179 354.500000,209.500000 
"/>
<path fill="none" opacity="1.000000" stroke="#000000" stroke-linecap="round" stroke-linejoin="round" stroke-width="3.000000"
	d="
M131.000000,47.500000 
	C130.952301,51.057880 133.575287,52.708126 136.000000,54.500000 
"/>
<path fill="none" opacity="1.000000" stroke="#000000" stroke-linecap="round" stroke-linejoin="round" stroke-width="3.000000"
	d="
M478.500000,155.500000 
	C480.438812,156.400940 482.498932,155.846054 484.500000,156.000000 
"/>
<path fill="none" opacity="1.000000" stroke="#000000" stroke-linecap="round" stroke-linejoin="round" stroke-width="3.000000"
	d="
M402.999969,156.000000 
	C402.833313,157.833328 402.666656,159.666672 402.499969,161.500000 
"/>
<path fill="none" opacity="1.000000" stroke="#000000" stroke-linecap="round" stroke-linejoin="round" stroke-width="4.000000"
	d="
M281.000000,199.000000 
	C283.740662,201.051865 282.025909,203.994812 282.500000,206.500000 
"/>
<path fill="none" opacity="1.000000" stroke="#000000" stroke-linecap="round" stroke-linejoin="round" stroke-width="4.000000"
	d="
M363.500000,203.000000 
	C367.064789,201.956940 370.032104,204.897171 373.500000,204.500000 
"/>
<path fill="none" opacity="1.000000" stroke="#000000" stroke-linecap="round" stroke-linejoin="round" stroke-width="3.000000"
	d="
M265.500000,43.500000 
	C268.134613,44.682686 269.855377,46.322315 268.500000,49.500000 
"/>
<path fill="none" opacity="1.000000" stroke="#000000" stroke-linecap="round" stroke-linejoin="round" stroke-width="2.000000"
	d="
M532.500000,155.000015 
	C530.833313,154.000015 529.166687,153.000015 527.500000,152.000015 
"/>
<path fill="none" opacity="1.000000" stroke="#000000" stroke-linecap="round" stroke-linejoin="round" stroke-width="2.000000"
	d="
M512.500000,224.500000 
	C514.711609,224.582031 512.920044,226.265320 513.500000,227.000000 
"/>
<path fill="none" opacity="1.000000" stroke="#000000" stroke-linecap="round" stroke-linejoin="round" stroke-width="2.000000"
	d="
M263.500000,159.000000 
	C260.465881,160.366470 262.831543,163.082886 261.826630,164.941254 
	C264.272980,166.011597 266.677429,165.182709 269.250000,165.659103 
	C269.250000,163.500000 269.250000,161.500000 269.250000,159.000000 
	C267.366638,159.000000 265.683319,159.000000 264.000000,159.000000 
"/>
<path fill="none" opacity="1.000000" stroke="#000000" stroke-linecap="round" stroke-linejoin="round" stroke-width="3.000000"
	d="
M166.500000,161.000000 
	C163.088394,161.404739 162.970383,163.867294 162.987915,166.500076 
	C163.026749,172.333145 163.000000,178.166672 163.000000,184.250000 
	C167.833328,184.250000 172.666672,184.250000 177.750000,184.250000 
	C177.750000,176.500000 177.750000,169.000000 177.750000,161.000000 
	C174.015869,161.000000 170.507935,161.000000 167.000000,161.000000 
"/>
<path fill="none" opacity="1.000000" stroke="#000000" stroke-linecap="round" stroke-linejoin="round" stroke-width="2.000000"
	d="
M307.500000,159.000000 
	C304.918640,159.072571 305.727631,161.017792 305.460907,162.492935 
	C305.067505,164.668655 306.893250,165.068192 308.030914,165.391068 
	C309.573334,165.828796 311.333344,165.500000 313.250000,165.500000 
	C313.250000,163.500000 313.250000,161.500000 313.250000,159.000000 
	C311.366638,159.000000 309.683319,159.000000 308.000000,159.000000 
"/>
<path fill="none" opacity="1.000000" stroke="#000000" stroke-linecap="round" stroke-linejoin="round" stroke-width="3.000000"
	d="
M479.000000,200.500000 
	C475.290588,201.885666 473.607635,206.968521 475.453217,210.524292 
	C476.458740,212.461594 478.584259,212.542679 479.405548,211.882507 
	C483.170349,208.856033 488.103119,206.844238 489.702148,201.314713 
	C486.315704,199.676239 482.829681,200.869888 479.500000,200.500000 
"/>
<path fill="none" opacity="1.000000" stroke="#000000" stroke-linecap="round" stroke-linejoin="round" stroke-width="2.000000"
	d="
M462.500000,146.000000 
	C459.465881,147.366470 461.831543,150.082886 460.830597,151.933929 
	C463.613007,153.025208 466.340393,152.220551 469.250000,152.580521 
	C469.250000,150.500000 469.250000,148.500000 469.250000,146.000000 
	C467.027740,146.000000 465.013885,146.000000 463.000000,146.000000 
"/>
</svg>